<svg width="384" height="512" viewBox="0 0 384 512" fill="none" xmlns="http://www.w3.org/2000/svg">
<path d="M365.3 93.3801L290.67 18.7401C278.6 6.7421 262.3 0.0001 245.4 0.0001L64 0C28.65 0 0 28.65 0 64L0.0065 448C0.0065 483.34 28.6565 512 64.0065 512H320C355.2 512 384 483.2 384 448V138.6C384 121.7 377.3 105.4 365.3 93.3801ZM336 448C336 456.836 328.836 464 320 464H64.02C55.182 464 48.02 456.836 48.02 448L48 64.1301C48 55.2941 55.164 48.1301 64 48.1301H224V128C224 145.67 238.33 160 256 160H335.1V448H336ZM96 280C96 293.3 106.8 304 120 304H264C277.3 304 288 293.3 288 280C288 266.7 277.3 256 264 256H120C106.8 256 96 266.8 96 280ZM264 352H120C106.8 352 96 362.8 96 376C96 389.2 106.75 400 120 400H264C277.25 400 288 389.25 288 376C288 362.75 277.3 352 264 352Z" fill="white"/>
</svg>